<?xml version="1.0" encoding="UTF-8"?>
<svg id="Layer_1" data-name="Layer 1" xmlns="http://www.w3.org/2000/svg" viewBox="0 0 137 157">
  <defs>
    <style>
      .cls-1 {
        stroke-miterlimit: 4.45;
      }

      .cls-1, .cls-2 {
        fill: none;
        stroke: #fff;
        stroke-width: 8px;
      }

      .cls-3 {
        fill: #19a866;
      }

      .cls-2 {
        stroke-linecap: round;
      }
    </style>
  </defs>
  <path class="cls-3" d="M62.26,19.68c3.86-2.23,8.62-2.23,12.48,0l41.57,24c3.86,2.23,6.24,6.35,6.24,10.81v48c0,4.46-2.38,8.58-6.24,10.81l-41.57,24c-3.86,2.23-8.62,2.23-12.48,0l-41.57-24c-3.86-2.23-6.24-6.35-6.24-10.81v-48c0-4.46,2.38-8.58,6.24-10.81l41.57-24Z"/>
  <path class="cls-1" d="M68.44,45.04c16.06,0,29,12.85,29,28.59,0,7.74-3.31,14.67-9.09,22.01-5.24,6.65-12.15,13.2-19.91,20.8-7.56-7.39-14.45-13.94-19.73-20.62-5.86-7.42-9.27-14.46-9.27-22.18,0-15.74,12.94-28.59,29-28.59Z"/>
  <line class="cls-2" x1="56.44" y1="68.04" x2="56.44" y2="85.04"/>
  <line class="cls-2" x1="68.44" y1="59.04" x2="68.44" y2="85.04"/>
  <line class="cls-2" x1="80.44" y1="71.04" x2="80.44" y2="85.04"/>
</svg>